<svg xmlns="http://www.w3.org/2000/svg" viewBox="0 0 24.21 28"><defs><style>.cls-1{fill:#fff;}</style></defs><title>logo</title><g id="Layer_2" data-name="Layer 2"><g id="Layer_1-2" data-name="Layer 1"><path class="cls-1" d="M24.21,0l-1.8,24.38L0,28,1.8,3.62Zm0,0H0V28H24.21V0Z"/><polygon class="cls-1" points="17.06 9.57 12.09 3.05 5.3 11.95 15.51 11.95 4.43 13.13 3.05 14.9 15.34 14.9 8.86 16.14 11.48 24.95 14.17 16.43 21.16 14.92 20.09 13.54 7.3 13.98 19.22 12.43 17.84 10.61 9.05 10.72 10.14 8.84 11.79 8.41 12.1 7.93 10.99 7.5 11.96 5.91 13.75 9.66 17.06 9.57"/></g></g></svg>